<?xml version="1.0" encoding="utf-8"?><!DOCTYPE svg PUBLIC "-//W3C//DTD SVG 1.1//EN" "http://www.w3.org/Graphics/SVG/1.1/DTD/svg11.dtd"><svg version="1.1" xmlns="http://www.w3.org/2000/svg" width="768" height="128" viewBox="0 0 768 128"><g transform="scale(0.242,0.242)"><g><rect fill="#F9F2DE" width="3168" height="528" /></g><g transform="translate(0,0)">
<path fill="#cc3300" d=" M 279.26 69.07 C 282.77 68.62 286.82 66.48 290.06 68.92 C 297.11 74.13 306.42 76.61 312.01 83.67 C 315.76 95.11 313.36 107.56 310.88 119.00 C 309.69 127.18 303.59 133.34 301.15 141.07 C 299.28 146.73 297.64 152.48 296.83 158.40 C 312.11 150.51 325.92 140.16 338.38 128.36 C 341.37 125.68 344.53 122.44 349.04 123.01 C 360.92 121.56 370.85 128.99 380.72 134.38 C 380.23 142.55 374.29 148.41 369.64 154.54 C 362.14 163.94 357.59 175.16 352.00 185.70 C 347.10 196.22 339.84 205.43 334.85 215.91 C 328.19 228.56 324.58 242.50 318.18 255.27 C 333.50 256.00 349.47 258.08 364.13 252.44 C 374.15 250.90 383.84 245.82 394.18 247.28 C 405.09 247.48 416.10 242.70 426.91 246.06 C 433.53 248.43 440.07 251.97 444.34 257.71 C 447.44 261.76 453.18 264.63 452.50 270.58 C 452.65 275.19 455.48 281.37 450.03 284.01 C 442.89 290.85 432.35 291.16 424.25 296.37 C 419.80 298.95 415.90 302.73 410.81 304.04 C 403.50 306.56 395.48 303.55 388.20 306.13 C 374.93 310.53 361.71 315.50 347.64 316.40 C 350.91 311.65 353.46 305.72 359.03 303.20 C 365.99 299.79 372.38 295.32 377.47 289.45 C 384.64 283.47 391.44 276.95 396.71 269.18 C 392.36 268.41 388.00 266.81 383.56 267.52 C 377.91 267.91 373.11 271.29 367.48 271.69 C 361.47 272.85 355.30 272.75 349.29 273.94 C 343.21 274.68 337.16 276.21 331.00 275.99 C 324.28 275.69 317.83 278.33 311.11 277.97 C 305.20 277.55 300.78 282.19 296.51 285.60 C 291.73 288.65 292.72 294.76 290.15 299.15 C 283.55 310.71 276.06 321.74 269.14 333.12 C 263.54 342.97 252.99 348.92 247.87 359.07 C 243.21 367.38 236.70 374.38 230.66 381.68 C 225.54 389.34 216.94 393.24 211.44 400.51 C 207.58 405.06 202.22 408.09 198.83 413.08 C 197.75 411.70 196.67 410.32 195.58 408.96 C 197.91 406.09 199.43 402.64 201.82 399.84 C 206.84 396.57 212.36 394.09 217.43 390.88 C 216.31 389.25 215.18 387.63 214.04 386.02 C 219.05 378.56 223.72 370.88 228.00 362.98 C 236.39 347.69 247.54 334.11 255.79 318.73 C 260.69 310.59 264.77 301.99 269.10 293.54 C 271.74 289.30 275.19 285.58 277.47 281.10 C 270.23 276.75 262.14 274.08 254.01 271.95 C 240.98 268.44 228.16 264.18 215.12 260.72 C 215.50 259.87 215.88 259.02 216.26 258.18 C 231.92 263.51 248.48 261.30 264.65 262.65 C 269.87 262.93 275.04 265.79 280.18 263.17 C 290.48 257.30 296.59 246.62 301.47 236.23 C 310.97 221.12 315.02 203.37 323.94 187.97 C 329.59 177.61 333.48 166.43 337.33 155.32 C 336.23 154.50 335.13 153.70 334.03 152.89 C 314.95 165.05 299.51 181.76 282.88 196.89 C 275.98 204.15 266.41 208.02 256.94 210.65 C 254.43 203.37 251.97 196.10 249.25 188.90 C 249.68 181.03 257.16 176.88 262.58 172.59 C 273.13 156.15 281.15 137.87 284.87 118.64 C 287.25 107.32 293.88 95.49 289.00 83.96 C 286.72 78.15 279.03 76.32 279.26 69.07 Z"/>
<path fill="#cc3300" d=" M 109.14 137.73 C 115.31 135.03 121.20 130.62 128.30 131.17 C 135.67 131.31 142.99 133.31 149.72 136.27 C 152.70 137.44 155.67 140.09 154.01 143.97 C 155.78 161.36 149.45 177.85 143.74 193.90 C 142.95 197.13 140.89 200.97 142.98 203.97 C 148.58 209.39 159.09 209.87 162.37 217.66 C 164.90 223.00 159.95 226.58 157.53 230.51 C 153.92 235.03 154.49 241.21 152.99 246.50 C 151.76 249.50 148.92 251.56 147.93 254.72 C 144.69 264.41 141.83 274.46 135.99 282.99 C 133.27 287.54 129.08 291.71 129.07 297.35 C 133.64 295.55 137.99 293.17 142.69 291.68 C 146.37 290.47 150.29 291.32 154.05 290.70 C 157.33 290.24 160.86 289.14 163.95 291.03 C 170.31 293.42 174.32 299.20 179.88 302.84 C 171.22 320.55 162.59 338.37 152.09 355.08 C 145.32 365.65 144.76 378.99 137.42 389.27 C 133.66 394.91 132.74 401.81 131.80 408.36 C 136.48 405.53 142.11 404.04 145.89 399.90 C 151.11 394.38 155.89 388.40 159.82 381.88 C 163.30 375.24 170.21 371.56 174.88 365.87 C 183.23 358.12 186.54 346.63 194.79 338.81 C 197.96 335.33 201.72 332.39 204.55 328.62 C 208.19 322.76 207.62 315.83 208.23 309.30 C 213.40 308.26 218.78 308.77 223.93 307.49 C 221.07 319.24 214.51 329.69 209.47 340.59 C 199.15 354.67 186.59 367.75 180.25 384.32 C 178.24 389.88 172.24 392.30 169.23 397.16 C 166.12 401.96 162.83 406.77 158.10 410.14 C 154.14 412.69 152.27 417.10 149.78 420.89 C 143.94 430.97 134.32 438.04 127.42 447.30 C 123.64 451.82 120.94 457.83 115.05 460.01 C 109.05 462.89 102.22 460.62 97.49 456.53 C 92.90 450.18 89.83 442.81 87.61 435.33 C 86.39 431.48 88.73 427.83 90.82 424.79 C 97.83 414.99 98.07 401.98 105.47 392.38 C 109.30 387.87 113.69 383.25 115.02 377.29 C 116.05 371.34 116.35 365.24 118.27 359.47 C 118.67 354.10 123.04 350.90 125.68 346.71 C 130.80 338.58 134.73 329.74 137.95 320.71 C 137.37 320.58 136.21 320.33 135.62 320.21 C 131.51 327.18 124.04 331.44 120.68 338.90 C 116.60 346.43 113.50 354.52 108.48 361.52 C 100.20 368.13 86.58 366.71 80.24 358.05 C 78.07 351.80 75.99 345.50 74.55 339.04 C 77.10 336.10 79.55 333.06 82.31 330.31 C 87.22 325.63 93.61 322.20 97.01 316.13 C 101.42 307.12 104.18 297.30 110.07 289.05 C 114.63 281.05 122.41 273.94 122.80 264.20 C 125.41 252.82 131.60 242.53 134.10 231.08 C 127.26 234.17 125.57 242.20 122.12 248.18 C 120.69 251.55 117.13 253.11 114.94 255.88 C 111.02 260.92 108.14 267.03 102.88 270.90 C 97.08 274.48 87.39 273.64 84.49 266.71 C 82.43 260.95 81.11 254.95 79.17 249.15 C 86.10 241.86 95.89 236.40 98.95 226.23 C 100.71 217.55 106.82 210.39 107.94 201.55 C 108.11 191.41 114.37 182.55 114.16 172.37 C 113.64 164.73 116.45 157.23 115.46 149.60 C 114.30 145.22 111.59 141.47 109.14 137.73 Z"/>
<path fill="#cc3300" d=" M 290.80 312.90 C 296.93 315.19 302.56 318.57 308.47 321.35 C 323.96 326.94 340.77 323.83 356.80 325.58 C 364.29 327.53 372.69 330.25 375.98 338.01 C 378.17 342.43 381.91 348.42 378.23 353.14 C 372.91 363.56 361.43 369.51 357.85 380.95 C 355.37 385.20 358.01 389.58 359.34 393.66 C 361.07 397.88 362.21 402.44 364.80 406.25 C 368.38 409.06 373.00 410.06 377.12 411.84 C 384.34 414.41 390.40 419.22 397.13 422.77 C 403.31 426.29 410.64 429.66 413.08 436.96 C 415.70 443.77 413.37 451.18 408.42 456.11 C 396.97 447.11 381.10 448.72 368.91 441.17 C 357.91 436.81 352.81 425.56 346.22 416.63 C 336.69 405.97 333.19 391.28 332.20 377.38 C 331.31 369.96 335.46 363.36 335.92 356.10 C 325.95 342.08 309.63 334.91 296.49 324.42 C 292.93 321.62 291.60 317.14 290.80 312.90 Z"/>
<path fill="#cc3300" d=" M 189.15 414.46 C 190.77 414.25 192.39 414.05 194.02 413.87 C 193.99 415.17 193.95 416.48 193.92 417.80 C 192.50 418.17 191.09 418.55 189.68 418.93 C 189.49 417.44 189.32 415.95 189.15 414.46 Z"/>
</g><g transform="translate(528,0)">
<path fill="#cc3300" d=" M 199.68 99.15 C 207.87 102.05 214.55 108.05 223.05 110.27 C 229.62 116.67 238.47 119.56 247.10 122.06 C 252.94 125.18 258.67 128.99 263.09 133.99 C 264.31 138.05 262.91 142.06 261.95 145.96 C 257.97 146.76 254.11 148.27 250.05 148.60 C 237.55 148.69 227.52 158.40 215.03 158.77 C 216.81 153.22 219.03 147.83 220.84 142.30 C 221.37 140.82 220.75 139.28 220.22 137.91 C 215.83 128.20 208.73 120.12 201.85 112.14 C 198.09 108.84 199.67 103.52 199.68 99.15 Z"/>
<path fill="#cc3300" d=" M 188.70 210.73 C 191.68 214.93 194.42 219.33 197.97 223.09 C 202.57 227.99 201.41 235.99 206.37 240.62 C 211.64 245.84 213.99 253.80 220.69 257.55 C 226.20 260.85 229.05 266.99 234.15 270.78 C 238.20 274.43 243.63 276.85 246.08 281.98 C 248.21 287.50 255.20 285.78 259.92 287.17 C 261.03 289.79 261.89 292.49 263.19 295.05 C 264.77 297.70 267.87 298.87 269.62 301.36 C 272.56 305.52 273.21 310.83 275.78 315.17 C 279.57 317.81 284.74 318.98 286.21 324.09 C 290.89 330.05 293.13 337.48 294.00 344.92 C 293.68 356.60 298.36 367.66 299.43 379.18 C 299.59 382.30 298.17 385.19 297.11 388.05 C 294.08 395.15 291.75 402.75 286.77 408.81 C 283.42 413.41 277.49 414.79 272.19 415.76 C 265.86 414.14 259.73 409.47 253.03 412.65 C 243.63 405.36 230.24 408.57 220.98 400.99 C 217.84 398.88 215.99 395.36 212.79 393.31 C 208.17 390.47 206.27 385.09 202.60 381.31 C 198.22 377.34 193.12 371.89 186.42 373.81 C 180.03 374.87 172.15 375.39 168.37 381.44 C 166.89 383.51 165.44 385.61 163.95 387.69 C 158.70 387.67 155.38 391.67 152.70 395.74 C 145.63 396.33 139.61 400.59 133.76 404.20 C 134.47 405.37 135.19 406.56 135.91 407.74 C 128.95 408.37 123.55 413.78 117.32 416.42 C 109.30 421.94 99.64 424.05 91.31 428.96 C 87.48 415.13 93.21 400.57 88.10 386.98 C 87.03 380.43 82.12 373.17 86.79 366.91 C 89.83 358.28 99.13 354.76 103.20 346.88 C 106.75 348.64 110.42 351.43 110.45 355.79 C 107.84 362.66 101.23 366.83 98.45 373.55 C 96.51 377.93 94.38 382.24 92.78 386.76 C 91.52 389.77 93.58 392.68 94.67 395.39 C 96.76 394.83 98.85 394.25 100.94 393.67 C 102.25 395.17 103.52 396.77 105.18 397.92 C 108.41 397.40 111.23 395.58 114.24 394.41 C 118.63 391.89 124.18 394.24 128.50 391.47 C 133.71 388.39 139.58 386.84 145.19 384.67 C 151.89 380.25 157.77 374.64 164.88 370.80 C 175.38 365.42 186.09 359.72 197.99 358.26 C 198.24 361.91 198.41 365.62 198.52 369.29 C 204.77 371.21 210.09 374.93 215.32 378.74 C 216.56 377.80 217.80 376.86 219.04 375.93 C 220.49 377.75 221.94 379.56 223.38 381.38 C 230.88 380.43 238.26 382.95 245.75 382.22 C 254.49 382.20 263.48 380.38 271.22 376.26 C 277.58 366.20 278.98 353.55 276.69 341.99 C 273.64 335.62 268.14 330.49 266.72 323.33 C 264.79 316.10 261.30 309.34 256.15 303.86 C 251.08 298.47 248.15 291.41 242.03 286.95 C 237.37 281.30 231.97 276.36 226.14 271.93 C 223.91 270.38 222.65 267.89 221.23 265.66 C 211.43 262.16 204.14 254.10 197.79 246.21 C 190.04 236.16 187.54 223.17 188.70 210.73 Z"/>
<path fill="#cc3300" d=" M 333.81 305.93 C 342.68 306.93 351.56 303.80 360.29 306.07 C 369.51 307.28 378.50 309.64 387.50 311.94 C 393.14 313.71 399.43 312.32 404.75 315.28 C 417.04 320.11 425.27 330.67 434.38 339.66 C 439.23 344.55 440.18 351.74 443.88 357.37 C 442.93 357.18 441.98 356.99 441.04 356.79 C 439.72 358.74 440.28 362.30 437.95 363.75 C 431.48 368.88 422.92 369.73 415.82 373.66 C 408.45 377.65 399.78 378.77 393.21 384.22 C 385.74 390.46 375.96 392.44 368.35 398.42 C 363.20 402.33 356.67 403.61 350.83 406.14 C 347.66 407.47 345.99 411.47 342.22 411.48 C 339.68 412.20 337.98 409.76 336.16 408.48 C 341.30 402.15 347.45 396.65 352.06 389.91 C 358.35 382.93 365.77 376.93 371.29 369.28 C 378.88 358.10 390.72 350.36 396.43 337.81 C 392.41 334.09 388.69 329.82 383.81 327.20 C 378.06 324.47 371.44 324.19 365.79 321.22 C 356.25 316.02 345.71 312.93 335.07 310.91 C 334.64 309.25 334.22 307.59 333.81 305.93 Z"/>
</g><g transform="translate(1056,0)">
<path fill="#cc3300" d=" M 122.73 106.44 C 129.93 104.30 137.44 102.56 145.00 103.38 C 156.45 110.48 158.88 125.63 161.21 137.85 C 161.79 142.18 157.31 145.03 155.50 148.46 C 147.52 157.84 142.01 168.89 136.91 179.99 C 131.60 188.15 127.18 196.80 122.39 205.26 C 117.08 216.18 113.23 227.75 108.25 238.82 C 115.69 243.08 121.90 249.10 127.11 255.86 C 129.32 259.12 128.42 263.37 128.50 267.01 C 127.91 276.09 128.61 285.16 129.20 294.22 C 136.92 282.54 144.36 270.69 151.74 258.80 C 153.28 256.41 154.83 253.93 157.10 252.16 C 164.65 246.54 172.49 241.28 180.63 236.54 C 184.24 234.31 188.62 235.65 192.52 236.15 C 196.27 236.99 201.83 237.12 203.72 241.26 C 206.87 250.32 207.05 260.17 205.25 269.53 C 204.51 282.88 202.04 296.00 199.10 309.01 C 197.62 321.41 197.58 334.52 190.82 345.55 C 186.27 343.95 179.39 345.27 176.47 340.63 C 175.73 333.17 175.06 325.66 175.49 318.17 C 177.25 308.37 181.49 299.18 183.18 289.37 C 185.57 275.52 187.93 260.90 182.89 247.34 C 172.24 253.28 160.47 260.02 155.90 272.04 C 152.07 279.36 146.22 285.48 143.36 293.35 C 137.45 309.40 132.22 325.87 129.77 342.84 C 127.85 363.84 124.64 384.69 122.74 405.68 C 121.86 411.18 122.02 416.98 120.21 422.30 C 116.31 424.58 111.43 423.86 107.13 424.03 C 98.64 421.15 98.94 411.54 97.27 404.40 C 96.11 396.91 95.25 389.04 97.86 381.74 C 100.23 374.74 103.10 367.84 103.37 360.34 C 103.82 349.50 106.00 338.84 106.63 328.03 C 106.46 311.79 105.06 295.57 105.58 279.34 C 105.62 273.11 108.11 266.06 104.65 260.33 C 102.71 257.38 98.35 257.54 96.28 260.27 C 86.05 269.66 87.26 285.07 79.81 295.99 C 75.56 296.67 72.31 293.13 69.81 290.22 C 65.90 284.68 66.43 277.43 65.61 271.05 C 65.40 264.66 63.99 257.88 66.70 251.83 C 70.36 243.05 76.63 235.66 80.64 227.06 C 88.15 205.10 99.93 184.94 108.27 163.32 C 113.18 148.54 122.60 135.55 126.12 120.28 C 127.33 115.26 124.64 110.81 122.73 106.44 Z"/>
<path fill="#cc3300" d=" M 355.90 126.74 C 357.27 123.50 360.89 121.79 364.35 123.61 C 376.85 128.63 384.46 141.09 389.33 153.02 C 387.89 162.49 383.19 171.18 380.45 180.31 C 378.20 187.34 373.91 193.45 371.29 200.32 C 368.57 207.24 367.08 214.57 365.61 221.84 C 361.35 244.14 354.33 266.11 354.03 288.99 C 353.91 294.46 353.29 301.83 358.91 305.09 C 365.21 312.36 375.61 309.09 383.71 307.73 C 390.52 307.03 395.67 302.41 401.63 299.62 C 408.78 296.58 415.58 292.79 422.66 289.61 C 429.28 286.86 436.38 289.56 442.76 291.51 C 449.08 293.90 453.18 299.57 458.12 303.89 C 465.38 308.50 463.09 318.43 460.03 325.03 C 458.30 331.07 451.99 333.03 447.64 336.74 C 441.58 342.26 436.51 348.89 429.78 353.67 C 421.62 359.46 412.26 363.32 404.19 369.25 C 397.84 373.77 391.35 378.23 384.09 381.17 C 375.53 384.64 367.25 389.88 357.65 389.59 C 367.12 375.03 381.11 364.22 391.01 349.99 C 396.91 341.58 403.64 333.53 407.79 324.05 C 390.25 327.29 372.11 331.60 354.31 327.72 C 345.70 325.59 342.61 316.44 339.79 309.09 C 336.28 301.94 337.44 293.76 338.13 286.14 C 340.73 267.17 342.51 248.10 345.15 229.13 C 346.72 218.12 346.36 206.77 349.78 196.08 C 350.81 188.08 348.84 180.07 347.64 172.20 C 340.65 175.67 334.54 180.79 330.62 187.63 C 321.06 202.85 312.06 218.40 302.63 233.70 C 297.53 241.76 295.29 251.13 291.67 259.86 C 280.01 281.84 287.44 309.49 272.72 330.33 C 266.24 329.54 259.44 329.36 253.49 326.39 C 247.20 323.21 241.06 319.73 235.04 316.08 C 234.51 305.91 234.42 295.70 233.28 285.59 C 232.75 277.97 226.39 273.00 222.99 266.66 C 228.81 265.27 234.73 264.39 240.67 263.63 C 245.99 270.74 251.68 277.56 257.88 283.92 C 264.06 277.29 268.60 269.35 272.12 261.04 C 277.97 247.65 284.40 234.50 291.98 221.99 C 295.54 216.31 298.51 210.11 303.37 205.37 C 306.48 202.40 308.72 198.70 311.07 195.14 C 320.95 178.30 331.39 161.71 343.12 146.09 C 349.02 140.81 352.53 133.74 355.90 126.74 Z"/>
</g><g transform="translate(1584,0)">
<path fill="#cc3300" d=" M 223.90 78.71 C 230.84 76.70 238.17 78.90 245.04 76.92 C 246.72 79.05 248.20 81.37 250.12 83.30 C 256.02 87.14 263.28 83.13 269.31 85.69 C 275.27 89.90 274.54 96.79 274.78 103.00 C 275.38 106.61 276.06 110.23 275.55 113.89 C 276.38 113.26 277.21 112.62 278.04 111.99 C 277.82 117.59 277.34 123.17 277.10 128.77 C 276.70 134.39 279.56 139.61 279.92 145.16 C 279.17 148.93 276.78 152.47 277.23 156.44 C 279.57 160.89 282.12 165.83 286.98 167.94 C 291.79 169.38 296.88 169.36 301.85 169.82 C 301.41 171.39 300.96 172.96 300.53 174.54 C 303.32 170.42 305.85 166.14 308.31 161.82 C 313.66 163.38 318.03 159.51 322.58 157.44 C 327.54 154.96 333.47 155.65 338.51 153.36 C 341.43 151.74 344.02 149.59 346.87 147.83 C 349.72 145.67 353.41 148.56 356.44 148.41 C 359.97 144.51 363.96 141.06 367.54 137.21 C 374.05 147.55 384.13 154.49 394.36 160.70 C 396.33 164.66 396.88 169.32 397.20 173.71 C 395.34 182.35 385.63 186.60 383.50 195.17 C 381.30 202.02 378.33 208.59 374.46 214.66 C 370.05 220.40 363.88 225.31 362.39 232.80 C 361.61 235.28 359.60 237.04 358.03 239.03 C 353.66 244.76 352.16 252.04 347.86 257.84 C 343.62 265.12 336.65 270.94 334.25 279.23 C 332.02 285.24 328.47 290.65 325.62 296.37 C 321.65 296.40 317.67 296.46 313.78 297.32 C 315.89 301.41 320.55 304.88 320.66 309.68 C 317.10 318.57 307.86 324.10 305.04 333.47 C 302.09 338.35 302.80 345.18 297.86 348.81 C 292.36 353.69 289.47 360.57 285.63 366.68 C 282.60 371.51 277.11 374.27 274.46 379.39 C 271.29 385.45 265.30 389.26 260.44 393.87 C 258.40 391.04 256.36 388.23 254.20 385.50 C 252.11 388.61 249.98 391.69 247.89 394.79 C 249.61 394.53 251.33 394.26 253.07 394.03 C 253.31 396.48 253.48 398.88 253.74 401.37 C 250.49 404.34 247.11 407.25 244.78 411.05 C 241.67 415.48 235.13 413.73 231.47 417.50 C 223.74 423.76 215.59 429.45 207.65 435.43 C 205.74 434.52 203.84 433.61 201.92 432.74 C 199.66 435.78 197.73 439.04 195.95 442.38 C 194.71 441.22 193.49 440.03 192.11 439.05 C 187.29 443.40 182.80 448.22 177.42 451.90 C 172.15 454.08 166.37 452.54 160.88 453.39 C 165.53 450.38 171.12 447.75 173.07 442.13 C 178.82 441.50 185.70 438.36 186.69 432.09 C 187.19 430.35 187.74 428.49 189.31 427.38 C 194.34 422.23 199.64 417.29 203.70 411.30 C 207.30 410.75 210.94 410.44 214.58 410.24 C 216.48 399.40 214.77 388.57 213.69 377.78 C 220.69 376.02 227.86 377.15 234.76 378.73 C 239.37 375.10 244.94 372.26 247.90 366.95 C 254.59 355.62 264.13 346.51 272.38 336.37 C 276.46 332.70 277.92 327.30 279.72 322.32 C 284.27 320.57 284.56 315.00 287.94 312.13 C 292.84 309.40 298.61 307.81 302.07 303.07 C 299.88 302.02 297.70 300.94 295.70 299.57 C 298.60 297.12 301.84 295.10 304.83 292.75 C 307.91 290.74 307.35 286.63 308.62 283.59 C 309.65 279.41 314.50 278.13 316.79 274.82 C 320.74 267.08 322.65 258.52 323.83 249.97 C 328.57 247.23 334.34 244.20 335.51 238.36 C 336.25 235.58 335.18 232.79 335.25 229.99 C 338.29 226.71 344.14 225.68 343.85 219.99 C 346.59 208.08 352.69 197.32 358.88 186.92 C 363.22 181.19 365.10 174.15 366.45 167.21 C 361.65 166.56 356.79 164.62 351.95 165.85 C 337.77 169.55 323.21 172.42 309.98 178.99 C 303.62 182.09 296.58 183.36 289.77 185.10 C 289.38 189.57 286.98 194.84 290.04 198.93 C 292.68 202.76 290.63 207.76 291.24 212.03 C 289.85 218.10 293.63 223.19 294.77 228.84 C 292.57 232.07 289.95 234.99 287.57 238.09 C 284.56 237.67 281.41 237.95 278.48 237.00 C 275.28 234.70 273.42 230.44 269.34 229.50 C 263.36 227.78 258.40 223.43 252.00 223.05 C 245.71 222.31 239.94 219.90 234.67 216.45 C 229.74 218.27 224.66 219.76 219.87 221.94 C 216.47 223.21 215.70 227.11 214.10 229.95 C 210.18 229.44 206.23 230.68 203.26 233.29 C 190.22 244.43 176.04 254.11 162.98 265.21 C 163.63 266.62 164.31 268.01 164.98 269.42 C 159.16 268.45 152.41 271.07 147.68 266.39 C 142.67 262.88 137.93 259.00 132.84 255.60 C 133.44 251.37 131.95 247.33 131.46 243.20 C 132.43 241.73 133.80 240.60 135.04 239.38 C 134.99 230.72 141.99 224.73 145.10 217.20 C 146.72 213.67 145.41 210.15 143.93 206.96 C 148.74 205.27 151.26 200.46 155.10 197.39 C 160.83 192.70 165.62 186.47 172.70 183.71 C 180.98 181.77 187.68 188.02 194.87 190.80 C 200.09 191.71 206.09 189.74 210.68 193.16 C 222.92 198.36 235.32 191.81 246.79 187.73 C 252.21 186.87 256.30 183.18 260.29 179.76 C 258.76 174.59 256.92 169.51 255.61 164.28 C 254.47 164.46 253.33 164.65 252.19 164.83 C 253.61 161.08 255.97 157.43 256.18 153.37 C 253.53 145.98 249.28 139.06 248.71 131.03 C 245.82 119.19 242.73 107.38 240.35 95.43 C 234.93 89.91 226.55 86.69 223.90 78.71 M 334.46 160.78 C 333.50 162.02 334.91 164.76 336.54 164.22 C 337.49 162.98 336.09 160.24 334.46 160.78 M 170.97 197.39 C 169.01 201.86 166.35 206.18 165.46 211.02 C 166.35 217.86 172.94 221.84 177.22 226.52 C 178.20 222.11 179.12 217.68 180.76 213.47 C 181.79 214.90 182.79 216.35 183.77 217.83 C 185.53 216.53 187.29 215.25 189.04 213.96 C 190.87 214.44 192.68 215.22 194.60 215.15 C 197.63 213.79 200.23 211.65 203.07 209.96 C 203.04 209.24 202.98 207.79 202.95 207.07 C 200.37 205.58 197.79 204.08 195.21 202.62 C 195.03 199.36 193.81 195.68 190.35 194.61 C 183.65 193.09 177.52 201.08 170.97 197.39 M 260.16 205.66 C 258.63 206.61 259.98 209.57 261.69 208.50 C 263.21 207.54 261.83 204.65 260.16 205.66 M 271.44 219.22 C 271.21 220.78 271.00 222.35 270.79 223.92 C 274.08 223.71 277.11 222.41 279.66 220.34 C 276.93 219.91 274.16 219.55 271.44 219.22 M 280.02 225.94 C 280.01 227.29 280.00 228.64 280.00 230.00 C 281.68 229.99 283.37 229.98 285.06 229.99 C 285.01 229.30 284.91 227.91 284.86 227.22 C 283.25 226.78 281.63 226.35 280.02 225.94 Z"/>
</g><g transform="translate(2112,0)">
<path fill="#cc3300" d=" M 229.83 79.73 C 237.16 78.88 244.47 77.43 251.88 77.51 C 259.26 78.32 266.56 79.79 273.80 81.43 C 267.93 90.32 257.27 96.84 256.81 108.40 C 272.84 111.86 289.31 114.16 305.69 111.81 C 319.80 111.92 332.75 106.12 346.09 102.48 C 358.25 103.05 370.83 111.72 373.87 123.79 C 367.79 130.66 357.49 130.99 348.99 130.38 C 340.39 130.64 331.15 128.36 323.02 132.07 C 317.95 134.25 312.40 134.76 307.06 135.87 C 308.36 139.80 309.76 143.72 310.19 147.87 C 311.75 153.28 314.73 158.19 317.23 163.21 C 321.66 166.93 327.64 166.46 332.93 165.81 C 348.68 164.92 363.79 158.45 379.66 159.41 C 387.58 160.86 391.58 168.51 396.36 174.14 C 393.51 178.75 390.53 183.27 387.60 187.82 C 370.08 187.09 352.53 186.44 335.00 187.12 C 331.78 187.50 328.49 188.08 325.59 189.57 C 322.03 191.37 321.68 195.88 319.94 199.11 C 316.58 206.25 316.33 214.23 315.37 221.91 C 316.20 225.09 319.39 227.12 321.35 229.65 C 325.58 233.49 328.23 238.67 332.15 242.75 C 340.36 248.13 349.56 251.85 358.70 255.33 C 373.55 260.33 389.96 260.63 404.00 268.05 C 410.61 271.57 416.03 276.78 421.76 281.52 C 416.53 290.01 412.03 299.01 405.95 306.94 C 402.38 309.62 397.52 309.71 393.35 311.02 C 391.14 308.51 389.18 305.67 386.46 303.70 C 379.47 300.37 371.74 299.03 364.18 297.66 C 357.63 296.47 352.27 292.16 346.06 290.11 C 338.99 289.04 331.76 289.32 324.64 289.72 C 322.17 290.11 318.91 291.23 318.69 294.17 C 317.52 303.59 316.14 312.99 315.42 322.47 C 315.19 328.04 312.83 333.27 312.71 338.83 C 313.93 355.95 312.77 373.39 308.64 390.08 C 307.31 396.53 306.86 403.20 304.49 409.41 C 302.26 415.33 302.79 421.89 300.72 427.84 C 297.16 435.50 287.69 438.39 284.36 446.22 C 283.20 449.21 281.21 451.74 278.90 453.93 C 278.31 446.51 277.49 439.13 276.65 431.74 C 276.82 418.64 276.31 405.49 273.47 392.66 C 271.28 383.53 273.72 374.25 273.35 365.03 C 273.17 360.98 270.86 357.29 270.91 353.23 C 272.19 346.83 274.88 340.66 274.73 334.03 C 275.14 321.45 273.63 308.90 274.06 296.31 C 270.81 295.37 267.74 292.28 264.16 293.18 C 259.44 294.45 254.50 294.94 249.94 296.79 C 241.97 300.19 233.17 300.35 224.84 302.40 C 219.30 303.80 213.38 300.26 208.13 303.18 C 200.68 306.33 193.19 309.41 185.30 311.27 C 176.29 313.63 168.69 319.20 160.52 323.39 C 149.72 327.97 138.59 332.17 126.94 333.91 C 124.79 334.28 123.21 332.54 121.82 331.21 C 117.09 326.18 112.78 320.69 109.53 314.59 C 107.67 309.59 107.60 304.11 106.62 298.91 C 112.82 290.39 121.18 283.43 131.66 281.08 C 135.06 284.49 138.47 287.89 141.91 291.27 C 150.10 289.61 158.36 288.15 166.36 285.66 C 173.10 283.80 180.06 286.42 186.84 284.74 C 208.04 281.13 229.50 278.72 250.29 273.03 C 256.91 271.10 266.07 271.81 270.01 265.04 C 272.43 253.19 269.16 240.71 272.18 228.88 C 274.30 219.52 272.48 209.82 268.71 201.15 C 266.30 196.82 260.66 196.43 256.29 197.22 C 248.56 198.26 242.49 203.47 236.48 207.98 C 241.49 212.85 246.56 218.04 253.46 220.11 C 261.21 222.50 263.58 231.56 261.72 238.71 C 258.34 245.41 250.84 248.12 244.08 249.98 C 231.78 251.98 219.82 246.60 207.53 246.64 C 200.20 245.48 193.78 249.50 186.81 250.63 C 181.79 250.83 177.03 248.57 172.47 246.71 C 181.26 238.89 191.35 232.47 199.15 223.58 C 194.19 218.67 189.90 213.05 184.55 208.54 C 173.05 203.43 160.91 199.41 150.17 192.73 C 147.70 188.79 145.35 184.66 143.63 180.30 C 165.39 179.34 187.24 181.07 208.96 178.91 C 220.84 177.96 232.78 177.92 244.68 177.29 C 254.33 176.02 262.40 169.99 270.87 165.67 C 268.75 159.16 265.26 153.27 261.76 147.43 C 259.58 143.88 258.36 139.67 255.51 136.56 C 247.57 133.53 239.25 131.60 230.93 129.97 C 224.55 128.76 218.63 132.55 212.79 134.45 C 196.74 140.67 179.21 144.04 162.13 140.34 C 168.80 134.15 177.20 130.29 185.17 126.08 C 192.74 121.93 197.73 114.69 203.53 108.55 C 210.50 101.32 213.85 91.65 219.63 83.59 C 221.73 80.13 226.49 80.61 229.83 79.73 M 320.17 248.25 C 319.56 253.06 320.34 257.76 323.61 261.58 C 327.42 260.41 331.38 259.54 334.94 257.69 C 337.32 248.85 325.27 249.62 320.17 248.25 Z"/>
</g><g transform="translate(2640,0)">
<path fill="#cc3300" d=" M 198.67 83.84 C 206.09 80.91 213.30 75.23 221.69 76.45 C 226.20 79.61 233.12 82.06 233.57 88.40 C 236.29 115.23 222.71 141.10 226.65 167.92 C 235.78 165.44 244.90 162.84 254.34 161.81 C 252.79 166.91 250.83 171.87 249.00 176.87 C 241.82 178.72 233.87 179.30 227.60 183.56 C 221.07 199.20 223.08 216.68 223.32 233.21 C 228.06 232.09 233.88 231.36 236.70 226.74 C 243.18 218.62 247.49 209.01 253.74 200.71 C 260.26 192.83 270.21 188.58 276.03 180.04 C 281.16 172.63 287.18 165.75 294.48 160.40 C 306.36 151.60 316.70 139.74 331.49 135.80 C 341.36 134.40 351.47 134.42 361.37 135.65 C 371.33 137.52 376.45 149.24 373.34 158.33 C 367.63 167.45 358.52 173.56 350.71 180.71 C 346.19 184.97 340.32 187.45 336.03 191.99 C 329.80 198.58 323.51 205.35 319.71 213.71 C 318.64 215.87 319.12 218.50 320.52 220.40 C 327.39 224.75 335.15 227.53 341.79 232.30 C 348.34 236.57 353.61 242.53 360.08 246.90 C 365.48 250.43 372.11 246.64 377.61 245.51 C 396.25 241.95 415.77 246.59 432.07 256.00 C 437.15 259.61 442.57 262.68 448.29 265.17 C 447.76 270.66 447.82 276.28 446.57 281.69 C 444.81 286.76 438.54 287.08 434.71 290.02 C 427.35 295.16 418.90 298.31 410.64 301.66 C 405.53 303.73 399.11 304.61 394.58 300.81 C 399.31 293.88 408.06 290.28 410.90 281.90 C 410.94 279.86 409.69 277.06 407.35 277.01 C 403.54 276.78 399.51 278.06 395.93 276.21 C 392.29 274.97 390.13 271.68 387.77 268.89 C 382.38 269.80 377.08 271.15 371.67 271.92 C 367.22 281.50 366.51 292.12 365.46 302.48 C 365.11 313.49 356.97 321.78 353.94 331.98 C 351.15 341.74 345.20 350.09 338.58 357.62 C 335.31 361.94 329.76 363.12 324.89 364.67 C 322.66 364.00 320.84 362.48 318.81 361.41 C 312.77 357.88 305.45 358.86 298.95 356.89 C 295.66 355.51 293.77 352.19 290.74 350.42 C 284.74 346.98 278.61 343.77 272.89 339.87 C 273.17 328.70 273.80 317.48 275.75 306.48 C 278.95 300.92 282.44 295.45 286.53 290.50 C 291.87 285.17 299.36 283.06 305.94 279.76 C 309.62 277.99 310.59 273.69 312.94 270.70 C 319.43 259.83 334.06 262.16 342.41 253.62 C 339.42 250.22 337.40 246.18 335.90 241.93 C 334.47 237.82 329.95 236.34 326.22 235.07 C 317.04 232.66 306.28 232.16 300.19 223.78 C 296.89 219.43 303.16 215.92 304.59 212.06 C 305.84 206.26 311.04 203.79 316.07 202.15 C 316.92 198.00 315.59 192.97 318.38 189.40 C 326.52 178.93 337.06 170.63 345.18 160.17 C 347.13 157.87 347.82 153.97 345.17 151.91 C 340.11 149.09 333.11 148.50 328.49 152.54 C 321.74 158.09 316.13 164.86 309.23 170.22 C 295.93 180.81 283.77 192.85 273.05 206.05 C 265.24 216.18 254.94 223.93 246.29 233.29 C 238.20 242.20 227.69 248.75 220.54 258.51 C 218.26 274.38 221.96 290.09 224.30 305.70 C 225.88 311.12 223.84 316.62 223.62 322.06 C 222.08 345.37 222.70 368.77 224.77 392.01 C 225.86 402.17 218.97 410.35 215.07 419.07 C 213.40 422.17 215.40 425.43 216.49 428.35 C 226.67 427.07 236.65 424.16 246.98 424.14 C 270.26 423.98 293.55 423.52 316.81 422.44 C 333.71 419.20 350.99 421.16 368.07 420.98 C 372.67 420.69 375.61 424.76 378.89 427.32 C 380.54 426.42 382.21 425.55 383.89 424.69 C 388.45 428.58 393.30 432.17 397.59 436.38 C 400.38 440.17 401.80 444.79 403.58 449.12 C 390.93 449.06 378.65 444.63 365.97 446.07 C 354.53 447.96 343.04 445.45 331.58 446.77 C 325.80 447.08 319.97 449.06 314.19 447.79 C 309.35 446.90 304.57 445.26 299.59 445.43 C 282.11 445.95 264.60 446.39 247.18 448.08 C 227.90 450.70 208.48 452.45 189.03 452.70 C 184.41 452.55 179.55 452.54 175.23 450.68 C 171.61 448.89 169.49 445.07 165.80 443.36 C 162.32 441.45 158.17 440.58 155.22 437.79 C 151.29 433.23 148.76 427.66 144.89 423.04 C 138.92 415.72 131.12 409.70 126.95 401.04 C 118.82 385.06 112.70 367.88 110.87 349.96 C 112.07 350.06 113.27 350.17 114.47 350.28 C 117.94 356.74 124.55 360.88 127.43 367.74 C 134.19 382.40 145.40 393.98 156.36 405.50 C 160.11 412.81 167.77 416.34 174.43 420.47 C 182.31 423.84 190.03 428.79 198.89 428.81 C 201.46 428.45 205.06 427.17 205.08 424.08 C 200.78 418.20 195.16 413.00 188.07 410.80 C 177.63 407.78 171.78 398.05 166.86 389.08 C 164.60 384.11 160.57 378.60 163.02 372.94 C 160.23 370.32 157.74 367.20 157.46 363.15 C 152.46 351.95 161.55 341.64 163.54 330.86 C 165.02 319.36 174.98 311.37 176.92 299.97 C 178.95 289.81 187.56 283.22 192.53 274.57 C 196.46 267.76 203.32 262.54 204.74 254.44 C 206.62 246.20 205.41 237.64 204.88 229.30 C 204.83 215.70 208.21 201.81 205.29 188.34 C 198.17 192.72 191.98 198.42 184.90 202.86 C 176.41 208.96 167.20 213.91 158.38 219.46 C 153.93 222.22 150.24 226.17 145.43 228.31 C 138.50 229.84 131.31 227.93 125.07 224.88 C 117.16 220.98 108.94 217.55 101.96 212.04 C 95.89 207.25 88.66 204.46 81.71 201.26 C 91.90 200.05 102.19 199.73 112.34 198.17 C 125.40 195.10 138.62 192.68 151.41 188.51 C 159.38 186.47 166.54 181.83 174.85 181.09 C 182.01 180.21 187.74 175.08 194.91 174.40 C 198.86 173.35 204.10 173.21 206.29 169.35 C 208.06 154.11 206.11 138.63 207.56 123.33 C 208.77 115.51 211.01 107.90 212.79 100.20 C 209.14 93.90 204.57 88.16 198.67 83.84 M 315.03 286.97 C 304.37 294.42 297.36 305.76 292.86 317.77 C 291.45 325.23 295.61 332.27 300.10 337.82 C 305.77 341.37 313.69 339.44 318.83 344.14 C 320.31 346.53 320.71 349.33 321.14 352.06 C 324.46 349.74 327.98 347.67 331.06 345.05 C 334.70 340.27 336.68 334.51 339.21 329.13 C 341.85 323.12 345.82 317.62 346.97 311.05 C 347.30 305.60 350.38 301.02 351.82 295.95 C 351.19 288.16 350.35 280.37 350.02 272.56 C 336.93 272.40 325.35 279.78 315.03 286.97 M 200.32 292.34 C 195.88 296.66 193.70 302.58 190.88 307.94 C 187.64 314.60 183.71 320.91 180.83 327.75 C 177.89 335.86 177.35 344.57 174.70 352.77 C 172.82 357.92 175.85 363.08 176.58 368.20 C 177.87 373.10 176.42 379.51 181.38 382.55 C 189.00 387.77 198.99 394.84 208.34 389.50 C 208.04 375.31 205.44 361.17 207.16 346.97 C 208.05 341.14 204.00 335.88 204.92 330.07 C 206.60 317.17 208.61 304.29 208.16 291.23 C 205.54 291.40 202.73 291.11 200.32 292.34 Z"/>
</g></g></svg>